<svg width="47" height="58" viewBox="0 0 39 48" fill="none" xmlns="http://www.w3.org/2000/svg">
  <g clip-path="url(#clip0)">
    <path d="M15.5998 15.4336L13.722 21.2389H17.3332L15.672 15.4336H15.5998Z" fill="#0075BE"/>
    <path d="M28.2387 2.2655L26.2887 7.78762H20.4387L22.9665 0.495588C21.8109 0.283199 20.6554 0.212402 19.4998 0.212402C9.02759 0.212402 0.505371 8.56638 0.505371 18.8319C0.505371 29.0974 9.02759 37.4513 19.4998 37.4513C29.972 37.4513 38.4943 29.0974 38.4943 18.8319C38.4943 11.6106 34.3054 5.38054 28.2387 2.2655ZM19.2831 27.8938L18.4887 25.2035H12.422L11.5554 27.8938H5.70537L12.7109 9.20355H18.4165L25.3498 27.8938H19.2831ZM27.4443 27.8938L20.4387 9.20355H26.2887L33.2943 27.8938H27.4443Z" fill="#0075BE"/>
    <path d="M12.7109 9.20361L5.70532 27.8939H11.6275L12.4942 25.2036H18.5609L19.3553 27.8939H25.422L18.4887 9.20361H12.7109ZM13.722 21.239L15.5275 15.5045H15.5998L17.3331 21.239H13.722Z" fill="white"/>
    <path d="M26.2887 9.20361H20.4387L27.4443 27.8939H33.2943L26.2887 9.20361Z" fill="white"/>
    <path d="M26.2887 7.78764L28.2387 2.26552C26.5776 1.41596 24.8443 0.849588 22.9665 0.495605L20.4387 7.78764H26.2887Z" fill="white"/>
    <path d="M38.4943 40.1416H0.505371V48.1416H38.4943V40.1416Z" fill="#1D1D1B"/>
    <path d="M2.1665 41.5576H6.21095V42.832H3.82762V43.5399H5.84984V44.7435H3.82762V46.655H2.1665V41.5576Z" fill="white"/>
    <path d="M7.872 41.5576H9.46089L11.3387 46.655H9.67755L9.46089 45.947H7.79978L7.58311 46.655H5.922L7.872 41.5576ZM9.09978 44.8142L8.66644 43.2567L8.16089 44.8142H9.09978Z" fill="white"/>
    <path d="M14.8053 43.4691C14.8053 43.3983 14.8053 43.3275 14.7331 43.2567C14.7331 43.1859 14.6609 43.1151 14.5887 43.0443C14.5164 42.9735 14.4442 42.9027 14.372 42.8319C14.2998 42.7612 14.1553 42.7612 13.9387 42.7612C13.722 42.7612 13.5776 42.8319 13.4331 42.9027C13.2887 42.9735 13.2164 43.1151 13.1442 43.2567C13.072 43.3983 12.9998 43.5399 12.9998 43.6815C12.9998 43.8231 12.9276 44.0355 12.9276 44.1771C12.9276 44.3187 12.9276 44.5311 12.9998 44.6727C12.9998 44.8142 13.072 44.9558 13.1442 45.0974C13.2164 45.239 13.2887 45.3098 13.4331 45.4514C13.5776 45.5222 13.722 45.593 13.9387 45.593C14.0831 45.593 14.1553 45.593 14.2998 45.5222C14.372 45.4514 14.4442 45.4514 14.5164 45.3098C14.5887 45.239 14.6609 45.1682 14.6609 45.0266C14.7331 44.9558 14.7331 44.8142 14.7331 44.6727H16.322C16.322 44.9558 16.2498 45.1682 16.1776 45.4514C16.1053 45.7346 15.8887 45.947 15.7442 46.1594C15.5276 46.3718 15.3109 46.5134 15.022 46.655C14.7331 46.7966 14.372 46.8673 14.0109 46.8673C13.5776 46.8673 13.2164 46.7966 12.8553 46.655C12.4942 46.5134 12.2776 46.301 12.0609 46.0886C11.8442 45.8762 11.6276 45.593 11.5553 45.239C11.4109 44.885 11.4109 44.5311 11.4109 44.1771C11.4109 43.7523 11.4831 43.3983 11.6276 43.1151C11.772 42.7612 11.9164 42.478 12.1331 42.2656C12.3498 42.0532 12.6387 41.8408 12.9998 41.6992C13.2887 41.5576 13.722 41.4868 14.0831 41.4868C14.8053 41.4868 15.3831 41.6992 15.7442 42.0532C16.1053 42.4072 16.3942 42.9027 16.4664 43.5399H14.8053V43.4691Z" fill="white"/>
    <path d="M18.1998 42.832H16.7554V41.5576H21.3054V42.832H19.8609V46.655H18.1998V42.832Z" fill="white"/>
    <path d="M21.5942 44.1063C21.5942 43.6815 21.6665 43.3275 21.8109 43.0443C21.9554 42.6904 22.0998 42.4072 22.3165 42.1948C22.5331 41.9824 22.822 41.77 23.1831 41.6284C23.5442 41.4868 23.9053 41.416 24.2665 41.416C24.6276 41.416 24.9887 41.4868 25.3498 41.6284C25.7109 41.77 25.9276 41.9116 26.2165 42.1948C26.4331 42.4072 26.6498 42.6904 26.722 43.0443C26.8665 43.3983 26.9387 43.7523 26.9387 44.1063C26.9387 44.5311 26.8665 44.885 26.722 45.1682C26.5776 45.5222 26.4331 45.8054 26.2165 46.0178C25.9998 46.2302 25.7109 46.4426 25.3498 46.5842C24.9887 46.7257 24.6276 46.7965 24.2665 46.7965C23.9053 46.7965 23.5442 46.7257 23.1831 46.5842C22.822 46.4426 22.6053 46.2302 22.3165 46.0178C22.0998 45.8054 21.8831 45.5222 21.8109 45.1682C21.6665 44.885 21.5942 44.5311 21.5942 44.1063ZM23.1831 44.1063C23.1831 44.3895 23.1831 44.6019 23.2554 44.8142C23.3276 45.0266 23.3998 45.1682 23.5442 45.239C23.6165 45.3098 23.7609 45.3806 23.9053 45.4514C24.0498 45.5222 24.122 45.5222 24.2665 45.5222C24.3387 45.5222 24.4831 45.5222 24.6276 45.4514C24.772 45.3806 24.8442 45.3098 24.9887 45.239C25.0609 45.1682 25.2054 45.0266 25.2776 44.8142C25.3498 44.6019 25.3498 44.3895 25.3498 44.1063C25.3498 43.8231 25.3498 43.6107 25.2776 43.3983C25.2054 43.1859 25.1331 43.0443 24.9887 42.9735C24.9165 42.9027 24.772 42.8319 24.6276 42.7611C24.4831 42.6904 24.4109 42.6904 24.2665 42.6904C24.1942 42.6904 24.0498 42.6904 23.9053 42.7611C23.7609 42.8319 23.6887 42.9027 23.5442 42.9735C23.472 43.0443 23.3276 43.1859 23.2554 43.3983C23.2554 43.6107 23.1831 43.8231 23.1831 44.1063Z" fill="white"/>
    <path d="M27.5887 41.5576H30.622C30.8387 41.5576 31.0553 41.5576 31.272 41.6284C31.4887 41.6992 31.6331 41.77 31.7775 41.9116C31.922 42.0532 32.0664 42.1948 32.1387 42.3364C32.2109 42.5488 32.2831 42.7612 32.2831 42.9735C32.2831 43.1151 32.2831 43.2567 32.2109 43.3983C32.2109 43.5399 32.1387 43.6815 32.0664 43.7523C31.9942 43.8939 31.922 43.9647 31.8498 44.0355C31.7775 44.1063 31.6331 44.1771 31.4887 44.2479C31.7053 44.3187 31.8498 44.4603 31.9942 44.6727C32.1387 44.885 32.2109 45.1682 32.2109 45.5222C32.2109 45.593 32.2109 45.6638 32.2109 45.7346C32.2109 45.8054 32.2109 45.947 32.2109 46.0178C32.2109 46.1594 32.2109 46.2302 32.2831 46.301C32.2831 46.3718 32.3553 46.4426 32.3553 46.5134H30.7664C30.6942 46.3718 30.6942 46.2302 30.6942 46.0886C30.6942 45.947 30.6942 45.8054 30.622 45.6638C30.622 45.5222 30.622 45.4514 30.5498 45.3098C30.5498 45.1682 30.4775 45.0974 30.4775 44.9558C30.4053 44.885 30.3331 44.8142 30.2609 44.7435C30.1887 44.6727 30.0442 44.6727 29.8998 44.6727H29.0331V46.4426H27.4442V41.5576H27.5887ZM29.1775 43.8231H30.0442C30.1164 43.8231 30.1887 43.8231 30.2609 43.8231C30.3331 43.8231 30.4053 43.8231 30.4775 43.7523C30.5498 43.6815 30.622 43.6815 30.622 43.6107C30.6942 43.5399 30.6942 43.4691 30.6942 43.3275C30.6942 43.1859 30.622 43.0443 30.5498 42.9735C30.4053 42.9027 30.2609 42.832 29.8998 42.832H29.1775V43.8231Z" fill="white"/>
    <path d="M34.2331 44.8142L32.3553 41.5576H34.1609L35.0276 43.4691L35.8942 41.5576H37.6998L35.822 44.8142V46.655H34.2331V44.8142Z" fill="white"/>
  </g>
  <defs>
    <clipPath id="clip0">
      <rect width="39" height="48" fill="white" transform="translate(-0.00012207)"/>
    </clipPath>
  </defs>
</svg>
